<svg width="26" height="23" viewBox="0 0 26 23" fill="none" xmlns="http://www.w3.org/2000/svg">
<path d="M23.9625 0.932423H13.5458C13.2695 0.932423 13.0046 1.04217 12.8092 1.23752C12.6139 1.43287 12.5041 1.69782 12.5041 1.97409V5.38034L10.0041 1.04701C9.82171 0.728854 9.55852 0.464498 9.24118 0.280656C8.92384 0.0968134 8.56359 0 8.19685 0C7.8301 0 7.46986 0.0968134 7.15252 0.280656C6.83518 0.464498 6.57199 0.728854 6.38956 1.04701V1.04701L0.139557 11.8699C0.0481315 12.0283 0 12.2079 0 12.3908C0 12.5736 0.0481315 12.7532 0.139557 12.9116C0.231332 13.0706 0.363482 13.2024 0.522626 13.2939C0.681769 13.3854 0.862255 13.4332 1.04581 13.4324H5.51456C5.31231 14.1083 5.21053 14.8103 5.21247 15.5158C5.21247 17.4496 5.9807 19.3043 7.34815 20.6717C8.71561 22.0392 10.5703 22.8074 12.5041 22.8074C14.438 22.8074 16.2927 22.0392 17.6601 20.6717C19.0276 19.3043 19.7958 17.4496 19.7958 15.5158C19.7978 14.8103 19.696 14.1083 19.4937 13.4324H23.9625C24.2387 13.4324 24.5037 13.3227 24.699 13.1273C24.8944 12.932 25.0041 12.667 25.0041 12.3908V1.97409C25.0041 1.69782 24.8944 1.43287 24.699 1.23752C24.5037 1.04217 24.2387 0.932423 23.9625 0.932423V0.932423ZM2.84789 11.3491L8.19164 2.08867L11.7646 8.22409C10.7228 8.34002 9.71832 8.67919 8.81952 9.21847C7.92072 9.75775 7.14875 10.4845 6.55622 11.3491H2.84789ZM12.5041 20.7241C11.474 20.7241 10.4671 20.4186 9.61055 19.8463C8.75404 19.274 8.08647 18.4606 7.69227 17.5089C7.29806 16.5572 7.19492 15.51 7.39588 14.4997C7.59685 13.4893 8.09289 12.5613 8.82129 11.8329C9.54969 11.1045 10.4777 10.6085 11.488 10.4075C12.4984 10.2065 13.5456 10.3097 14.4973 10.7039C15.449 11.0981 16.2624 11.7657 16.8347 12.6222C17.407 13.4787 17.7125 14.4856 17.7125 15.5158C17.7125 16.8971 17.1637 18.2219 16.187 19.1986C15.2102 20.1754 13.8855 20.7241 12.5041 20.7241V20.7241ZM22.9208 11.3491H18.4833C17.5373 9.99852 16.1655 9.00448 14.5875 8.52617V3.01576H22.9208V11.3491Z" fill="#6F6F6F"/>
</svg>
