<svg width="25" height="25" viewBox="0 0 25 25" fill="none" xmlns="http://www.w3.org/2000/svg">
<g clip-path="url(#clip0_47_3)">
<path d="M19.7917 0H5.20833C3.82751 0.00165402 2.50371 0.550919 1.52731 1.52731C0.550919 2.50371 0.00165402 3.82751 0 5.20833L0 19.7917C0.00165402 21.1725 0.550919 22.4963 1.52731 23.4727C2.50371 24.4491 3.82751 24.9983 5.20833 25H19.7917C21.1725 24.9983 22.4963 24.4491 23.4727 23.4727C24.4491 22.4963 24.9983 21.1725 25 19.7917V5.20833C24.9983 3.82751 24.4491 2.50371 23.4727 1.52731C22.4963 0.550919 21.1725 0.00165402 19.7917 0V0ZM5.20833 2.08333H19.7917C20.6205 2.08333 21.4153 2.41257 22.0014 2.99862C22.5874 3.58468 22.9167 4.37953 22.9167 5.20833V19.7917C22.9149 20.2557 22.808 20.7133 22.6042 21.1302L13.0594 11.5854C12.5757 11.1016 12.0015 10.7179 11.3695 10.456C10.7375 10.1942 10.0601 10.0594 9.37604 10.0594C8.69196 10.0594 8.01457 10.1942 7.38258 10.456C6.75059 10.7179 6.17636 11.1016 5.69271 11.5854L2.08333 15.1937V5.20833C2.08333 4.37953 2.41257 3.58468 2.99862 2.99862C3.58468 2.41257 4.37953 2.08333 5.20833 2.08333V2.08333ZM5.20833 22.9167C4.37953 22.9167 3.58468 22.5874 2.99862 22.0014C2.41257 21.4153 2.08333 20.6205 2.08333 19.7917V18.1396L7.16458 13.0583C7.45479 12.7679 7.79938 12.5376 8.17865 12.3804C8.55792 12.2232 8.96445 12.1423 9.375 12.1423C9.78555 12.1423 10.1921 12.2232 10.5713 12.3804C10.9506 12.5376 11.2952 12.7679 11.5854 13.0583L21.1302 22.6042C20.7133 22.808 20.2557 22.9149 19.7917 22.9167H5.20833Z" fill="#6F6F6F"/>
<path d="M16.6667 10.9375C17.3877 10.9375 18.0926 10.7237 18.6922 10.3231C19.2917 9.92245 19.759 9.35305 20.035 8.68686C20.3109 8.02067 20.3831 7.28762 20.2424 6.5804C20.1018 5.87317 19.7545 5.22355 19.2447 4.71367C18.7348 4.20379 18.0852 3.85656 17.3779 3.71588C16.6707 3.57521 15.9377 3.64741 15.2715 3.92335C14.6053 4.1993 14.0359 4.66659 13.6353 5.26615C13.2347 5.8657 13.0208 6.57059 13.0208 7.29166C13.0208 8.2586 13.4049 9.18593 14.0887 9.86966C14.7724 10.5534 15.6997 10.9375 16.6667 10.9375V10.9375ZM16.6667 5.72916C16.9757 5.72916 17.2778 5.8208 17.5347 5.99249C17.7917 6.16418 17.992 6.40821 18.1102 6.69372C18.2285 6.97923 18.2594 7.2934 18.1991 7.59649C18.1388 7.89959 17.99 8.178 17.7715 8.39652C17.553 8.61504 17.2746 8.76385 16.9715 8.82414C16.6684 8.88443 16.3542 8.85349 16.0687 8.73522C15.7832 8.61696 15.5392 8.41669 15.3675 8.15974C15.1958 7.90279 15.1042 7.6007 15.1042 7.29166C15.1042 6.87726 15.2688 6.47983 15.5618 6.18681C15.8548 5.89378 16.2523 5.72916 16.6667 5.72916V5.72916Z" fill="#6F6F6F"/>
</g>
<defs>
<clipPath id="clip0_47_3">
<rect width="25" height="25" fill="white"/>
</clipPath>
</defs>
</svg>
