<svg width="25" height="25" viewBox="0 0 25 25" fill="none" xmlns="http://www.w3.org/2000/svg">
<path d="M19.7917 0H5.20833C3.82751 0.00165402 2.50371 0.550919 1.52731 1.52731C0.550919 2.50371 0.00165402 3.82751 0 5.20833L0 19.7917C0.00165402 21.1725 0.550919 22.4963 1.52731 23.4727C2.50371 24.4491 3.82751 24.9983 5.20833 25H19.7917C21.1725 24.9983 22.4963 24.4491 23.4727 23.4727C24.4491 22.4963 24.9983 21.1725 25 19.7917V5.20833C24.9983 3.82751 24.4491 2.50371 23.4727 1.52731C22.4963 0.550919 21.1725 0.00165402 19.7917 0V0ZM22.9167 19.7917C22.9167 20.6205 22.5874 21.4153 22.0014 22.0014C21.4153 22.5874 20.6205 22.9167 19.7917 22.9167H5.20833C4.37953 22.9167 3.58468 22.5874 2.99862 22.0014C2.41257 21.4153 2.08333 20.6205 2.08333 19.7917V5.20833C2.08333 4.37953 2.41257 3.58468 2.99862 2.99862C3.58468 2.41257 4.37953 2.08333 5.20833 2.08333H19.7917C20.6205 2.08333 21.4153 2.41257 22.0014 2.99862C22.5874 3.58468 22.9167 4.37953 22.9167 5.20833V19.7917ZM18.75 9.375C18.75 9.65127 18.6403 9.91622 18.4449 10.1116C18.2496 10.3069 17.9846 10.4167 17.7083 10.4167C17.4321 10.4167 17.1671 10.3069 16.9718 10.1116C16.7764 9.91622 16.6667 9.65127 16.6667 9.375C16.6667 9.09873 16.5569 8.83378 16.3616 8.63843C16.1662 8.44308 15.9013 8.33333 15.625 8.33333H13.5417V16.6667H14.5833C14.8596 16.6667 15.1246 16.7764 15.3199 16.9718C15.5153 17.1671 15.625 17.4321 15.625 17.7083C15.625 17.9846 15.5153 18.2496 15.3199 18.4449C15.1246 18.6403 14.8596 18.75 14.5833 18.75H10.4167C10.1404 18.75 9.87545 18.6403 9.6801 18.4449C9.48475 18.2496 9.375 17.9846 9.375 17.7083C9.375 17.4321 9.48475 17.1671 9.6801 16.9718C9.87545 16.7764 10.1404 16.6667 10.4167 16.6667H11.4583V8.33333H9.375C9.09873 8.33333 8.83378 8.44308 8.63843 8.63843C8.44308 8.83378 8.33333 9.09873 8.33333 9.375C8.33333 9.65127 8.22359 9.91622 8.02824 10.1116C7.83289 10.3069 7.56793 10.4167 7.29167 10.4167C7.0154 10.4167 6.75045 10.3069 6.5551 10.1116C6.35975 9.91622 6.25 9.65127 6.25 9.375C6.25 8.5462 6.57924 7.75134 7.16529 7.16529C7.75134 6.57924 8.5462 6.25 9.375 6.25H15.625C16.4538 6.25 17.2487 6.57924 17.8347 7.16529C18.4208 7.75134 18.75 8.5462 18.75 9.375Z" fill="#6F6F6F"/>
</svg>
