<svg width="10" height="10" viewBox="0 0 10 10" fill="none" xmlns="http://www.w3.org/2000/svg">
<path d="M8.3125 3.5625H5.9375V1.1875C5.9375 0.872555 5.81239 0.57051 5.58969 0.347811C5.36699 0.125111 5.06494 0 4.75 0C4.43506 0 4.13301 0.125111 3.91031 0.347811C3.68761 0.57051 3.5625 0.872555 3.5625 1.1875V3.5625H1.1875C0.872555 3.5625 0.57051 3.68761 0.347811 3.91031C0.125111 4.13301 0 4.43506 0 4.75C0 5.06494 0.125111 5.36699 0.347811 5.58969C0.57051 5.81239 0.872555 5.9375 1.1875 5.9375H3.5625V8.3125C3.5625 8.62744 3.68761 8.92949 3.91031 9.15219C4.13301 9.37489 4.43506 9.5 4.75 9.5C5.06494 9.5 5.36699 9.37489 5.58969 9.15219C5.81239 8.92949 5.9375 8.62744 5.9375 8.3125V5.9375H8.3125C8.62744 5.9375 8.92949 5.81239 9.15219 5.58969C9.37489 5.36699 9.5 5.06494 9.5 4.75C9.5 4.43506 9.37489 4.13301 9.15219 3.91031C8.92949 3.68761 8.62744 3.5625 8.3125 3.5625Z" fill="#6F6F6F"/>
</svg>
