<svg width="22" height="15" viewBox="0 0 22 15" fill="none" xmlns="http://www.w3.org/2000/svg">
<path d="M10.7227 15L9.32617 11.0352H3.86719L2.4707 15H0L5.3125 0.664062H7.91016L13.2129 15H10.7227ZM8.7207 9.02344L7.36328 5.11719C7.3112 4.94792 7.23633 4.71029 7.13867 4.4043C7.04102 4.0918 6.94336 3.77604 6.8457 3.45703C6.74805 3.13151 6.66667 2.85807 6.60156 2.63672C6.53646 2.90365 6.45508 3.20312 6.35742 3.53516C6.26628 3.86068 6.17513 4.16667 6.08398 4.45312C5.99935 4.73958 5.93424 4.96094 5.88867 5.11719L4.52148 9.02344H8.7207ZM20.3418 3.98438C20.5241 3.98438 20.7227 3.99414 20.9375 4.01367C21.1523 4.0332 21.3379 4.05924 21.4941 4.0918L21.2793 6.24023C21.1426 6.20117 20.9733 6.17188 20.7715 6.15234C20.5762 6.13281 20.4004 6.12305 20.2441 6.12305C19.834 6.12305 19.4434 6.19141 19.0723 6.32812C18.7012 6.45833 18.3724 6.66016 18.0859 6.93359C17.7995 7.20052 17.5749 7.53581 17.4121 7.93945C17.2493 8.3431 17.168 8.81185 17.168 9.3457V15H14.8633V4.18945H16.6602L16.9727 6.09375H17.0801C17.2949 5.70964 17.5618 5.35807 17.8809 5.03906C18.1999 4.72005 18.5645 4.46615 18.9746 4.27734C19.3913 4.08203 19.847 3.98438 20.3418 3.98438Z" fill="#6F6F6F"/>
</svg>
