<svg width="19" height="19" viewBox="0 0 19 19" fill="none" xmlns="http://www.w3.org/2000/svg">
<g clip-path="url(#clip0_67_12)">
<path d="M15.0417 0H3.95833C2.9089 0.00125705 1.90282 0.418698 1.16076 1.16076C0.418698 1.90282 0.00125705 2.9089 0 3.95833L0 15.0417C0.00125705 16.0911 0.418698 17.0972 1.16076 17.8392C1.90282 18.5813 2.9089 18.9987 3.95833 19H15.0417C16.0911 18.9987 17.0972 18.5813 17.8392 17.8392C18.5813 17.0972 18.9987 16.0911 19 15.0417V3.95833C18.9987 2.9089 18.5813 1.90282 17.8392 1.16076C17.0972 0.418698 16.0911 0.00125705 15.0417 0V0ZM3.95833 1.58333H15.0417C15.6716 1.58333 16.2756 1.83356 16.721 2.27895C17.1664 2.72435 17.4167 3.32844 17.4167 3.95833V15.0417C17.4153 15.3943 17.3341 15.7421 17.1792 16.059L9.92513 8.80492C9.55755 8.43724 9.12114 8.14558 8.64082 7.94659C8.16051 7.7476 7.6457 7.64518 7.12579 7.64518C6.60589 7.64518 6.09108 7.7476 5.61076 7.94659C5.13045 8.14558 4.69404 8.43724 4.32646 8.80492L1.58333 11.5473V3.95833C1.58333 3.32844 1.83356 2.72435 2.27895 2.27895C2.72435 1.83356 3.32844 1.58333 3.95833 1.58333ZM3.95833 17.4167C3.32844 17.4167 2.72435 17.1664 2.27895 16.721C1.83356 16.2756 1.58333 15.6716 1.58333 15.0417V13.7861L5.44508 9.92433C5.66564 9.70363 5.92753 9.52856 6.21578 9.40911C6.50402 9.28966 6.81298 9.22817 7.125 9.22817C7.43702 9.22817 7.74598 9.28966 8.03423 9.40911C8.32247 9.52856 8.58436 9.70363 8.80492 9.92433L16.059 17.1792C15.7421 17.3341 15.3943 17.4153 15.0417 17.4167H3.95833Z" fill="#6F6F6F"/>
<path d="M12.6667 8.3125C13.2147 8.3125 13.7504 8.14999 14.2061 7.84553C14.6617 7.54106 15.0169 7.10832 15.2266 6.60201C15.4363 6.09571 15.4912 5.53859 15.3843 5.0011C15.2773 4.46361 15.0134 3.9699 14.6259 3.58239C14.2384 3.19488 13.7447 2.93098 13.2072 2.82407C12.6697 2.71716 12.1126 2.77203 11.6063 2.98175C11.1 3.19146 10.6673 3.54661 10.3628 4.00227C10.0583 4.45793 9.89583 4.99364 9.89583 5.54166C9.89583 6.27653 10.1878 6.98131 10.7074 7.50094C11.227 8.02057 11.9318 8.3125 12.6667 8.3125ZM12.6667 4.35416C12.9015 4.35416 13.1311 4.42381 13.3264 4.55429C13.5217 4.68478 13.6739 4.87024 13.7638 5.08723C13.8537 5.30421 13.8772 5.54298 13.8313 5.77333C13.7855 6.00368 13.6724 6.21528 13.5064 6.38135C13.3403 6.54743 13.1287 6.66053 12.8983 6.70635C12.668 6.75217 12.4292 6.72865 12.2122 6.63877C11.9952 6.54889 11.8098 6.39669 11.6793 6.2014C11.5488 6.00612 11.4792 5.77653 11.4792 5.54166C11.4792 5.22672 11.6043 4.92467 11.827 4.70197C12.0497 4.47927 12.3517 4.35416 12.6667 4.35416Z" fill="#6F6F6F"/>
</g>
<defs>
<clipPath id="clip0_67_12">
<rect width="19" height="19" fill="white"/>
</clipPath>
</defs>
</svg>
