<svg width="15" height="18" viewBox="0 0 15 18" fill="none" xmlns="http://www.w3.org/2000/svg">
<path d="M11.8049 7.99726C12.3225 7.20289 12.6071 6.29148 12.6292 5.35747C12.6514 4.42346 12.4102 3.50081 11.9308 2.68511C11.4514 1.8694 10.7512 1.19032 9.90262 0.718213C9.05406 0.246104 8.08808 -0.00185989 7.10473 1.05035e-05H1.57883C1.1601 1.05035e-05 0.758516 0.158046 0.462428 0.43935C0.16634 0.720654 0 1.10219 0 1.50001V16.5C0 16.8978 0.16634 17.2794 0.462428 17.5607C0.758516 17.842 1.1601 18 1.57883 18H9.47297C10.7308 18.0013 11.9515 17.5944 12.9328 16.8468C13.9141 16.0992 14.5973 15.0556 14.8694 13.8888C15.1414 12.722 14.9859 11.502 14.4286 10.4306C13.8713 9.35922 12.9457 8.50074 11.8049 7.99726ZM3.15766 3.00001H7.10473C7.73283 3.00001 8.3352 3.23706 8.77933 3.65902C9.22346 4.08097 9.47297 4.65327 9.47297 5.25001C9.47297 5.84674 9.22346 6.41904 8.77933 6.841C8.3352 7.26295 7.73283 7.50001 7.10473 7.50001H3.15766V3.00001ZM9.47297 15H3.15766V10.5H9.47297C10.1011 10.5 10.7034 10.7371 11.1476 11.159C11.5917 11.581 11.8412 12.1533 11.8412 12.75C11.8412 13.3467 11.5917 13.919 11.1476 14.341C10.7034 14.7629 10.1011 15 9.47297 15Z" fill="#6F6F6F"/>
</svg>
