<svg width="35" height="35" viewBox="0 0 35 35" fill="none" xmlns="http://www.w3.org/2000/svg">
<path d="M14.8569 7.3768V9.66328" stroke="#6F6F6F" stroke-width="2" stroke-miterlimit="10" stroke-linecap="round" stroke-linejoin="round"/>
<path d="M16.0005 8.51976H13.7134" stroke="#6F6F6F" stroke-width="2" stroke-miterlimit="10" stroke-linecap="round" stroke-linejoin="round"/>
<path d="M19.7318 23.9837V26.2708" stroke="#6F6F6F" stroke-width="2" stroke-miterlimit="10" stroke-linecap="round" stroke-linejoin="round"/>
<path d="M20.8753 25.1273H18.5883" stroke="#6F6F6F" stroke-width="2" stroke-miterlimit="10" stroke-linecap="round" stroke-linejoin="round"/>
<path d="M13.0944 11.5981V12.8745" stroke="#6F6F6F" stroke-miterlimit="10" stroke-linecap="round" stroke-linejoin="round"/>
<path d="M13.7326 12.2363H12.4567" stroke="#6F6F6F" stroke-miterlimit="10" stroke-linecap="round" stroke-linejoin="round"/>
<path d="M22.3043 20.7058V21.9816" stroke="#6F6F6F" stroke-miterlimit="10" stroke-linecap="round" stroke-linejoin="round"/>
<path d="M22.9425 21.3434H21.6666" stroke="#6F6F6F" stroke-miterlimit="10" stroke-linecap="round" stroke-linejoin="round"/>
<path d="M26.4806 12.6505L22.3499 8.51982L7.8442 23.0255L11.9749 27.1562L26.4806 12.6505Z" stroke="#6F6F6F" stroke-width="2" stroke-miterlimit="10" stroke-linecap="round" stroke-linejoin="round"/>
<path d="M9.89105 25.1092L11.9517 27.1693L9.13691 27.9234L6.32269 28.6776L7.07683 25.8634L7.83097 23.0486L9.89105 25.1092Z" stroke="#6F6F6F" stroke-width="2" stroke-miterlimit="10" stroke-linecap="round" stroke-linejoin="round"/>
<path d="M28.5218 10.6091L24.3911 6.47841L22.3494 8.52016L26.48 12.6508L28.5218 10.6091Z" stroke="#6F6F6F" stroke-width="2" stroke-miterlimit="10" stroke-linecap="round" stroke-linejoin="round"/>
</svg>
