<svg width="35" height="35" viewBox="0 0 35 35" fill="none" xmlns="http://www.w3.org/2000/svg">
<path d="M27.3155 23.4191C28.0432 24.4537 28.9877 25.6493 28.9877 26.4987C28.9877 27.1621 28.7245 27.7983 28.2558 28.2674C27.7872 28.7365 27.1517 29 26.4889 29C25.8262 29 25.1906 28.7365 24.722 28.2674C24.2534 27.7983 23.9902 27.1621 23.9902 26.4987C23.9902 25.7233 24.9507 24.4897 25.6813 23.4281C25.7729 23.2965 25.8947 23.1889 26.0365 23.1143C26.1783 23.0396 26.3359 23.0002 26.4961 22.9993C26.6563 22.9985 26.8144 23.0361 26.957 23.1092C27.0996 23.1823 27.2226 23.2886 27.3155 23.4191ZM26.439 18.8588L17.7712 27.5353C16.8332 28.4719 15.5624 28.998 14.2374 28.998C12.9125 28.998 11.6416 28.4719 10.7036 27.5353L6.46372 23.2901C5.52651 22.3519 5 21.0795 5 19.7528C5 18.426 5.52651 17.1536 6.46372 16.2155L12.1699 10.5025L9.31532 7.61105C9.13403 7.42138 9.03447 7.16798 9.03811 6.9055C9.04175 6.64302 9.14829 6.39248 9.33477 6.20792C9.52125 6.02335 9.77273 5.91954 10.035 5.91887C10.2972 5.9182 10.5492 6.02072 10.7366 6.20433L13.5832 9.08981L15.1305 7.53901L14.2879 6.69558C14.1058 6.50688 14.0051 6.25415 14.0074 5.99182C14.0096 5.72949 14.1148 5.47855 14.3001 5.29304C14.4854 5.10754 14.7361 5.00232 14.9981 5.00004C15.2602 4.99776 15.5127 5.0986 15.7012 5.28086L28.6949 18.2875C28.7903 18.3798 28.8665 18.4902 28.9189 18.6123C28.9712 18.7343 28.9988 18.8656 29 18.9985C29.0011 19.1313 28.9758 19.2631 28.9256 19.386C28.8753 19.509 28.8011 19.6207 28.7072 19.7146C28.6134 19.8086 28.5018 19.8829 28.379 19.9332C28.2561 19.9835 28.1245 20.0088 27.9918 20.0076C27.8591 20.0065 27.7279 19.9789 27.606 19.9265C27.484 19.874 27.3738 19.7978 27.2815 19.7022L26.439 18.8588ZM25.0257 17.4441L16.5438 8.95374L14.9876 10.5125L19.7033 15.293C19.8056 15.384 19.8882 15.495 19.9459 15.6193C20.0036 15.7436 20.0352 15.8784 20.0387 16.0154C20.0422 16.1523 20.0176 16.2886 19.9663 16.4157C19.9151 16.5427 19.8383 16.6579 19.7408 16.754C19.6432 16.8502 19.527 16.9252 19.3993 16.9745C19.2715 17.0238 19.1351 17.0464 18.9983 17.0407C18.8615 17.0351 18.7273 17.0013 18.6041 16.9416C18.4809 16.882 18.3712 16.7976 18.2819 16.6937L13.5752 11.9263L7.87803 17.6292C7.59953 17.9079 7.37862 18.2388 7.22789 18.603C7.07717 18.9672 6.9996 19.3576 6.9996 19.7518C6.9996 20.146 7.07717 20.5363 7.22789 20.9005C7.37862 21.2647 7.59953 21.5956 7.87803 21.8744L12.118 26.1195C12.681 26.6813 13.4435 26.9968 14.2384 26.9968C15.0334 26.9968 15.7959 26.6813 16.3589 26.1195L25.0257 17.4441Z" fill="#6F6F6F"/>
</svg>
