<svg width="25" height="25" viewBox="0 0 25 25" fill="none" xmlns="http://www.w3.org/2000/svg">
<path d="M20.6665 17.5818C21.2425 18.4008 21.9903 19.3473 21.9903 20.0198C21.9903 20.545 21.7819 21.0487 21.4109 21.42C21.0399 21.7914 20.5367 22 20.0121 22C19.4874 22 18.9843 21.7914 18.6133 21.42C18.2423 21.0487 18.0339 20.545 18.0339 20.0198C18.0339 19.406 18.7943 18.4293 19.3727 17.5889C19.4452 17.4848 19.5416 17.3995 19.6539 17.3405C19.7661 17.2814 19.8909 17.2502 20.0177 17.2495C20.1446 17.2488 20.2697 17.2786 20.3826 17.3364C20.4955 17.3943 20.5929 17.4784 20.6665 17.5818ZM19.9725 13.9716L13.1105 20.8404C12.3679 21.5819 11.3619 21.9984 10.313 21.9984C9.26405 21.9984 8.25797 21.5819 7.51539 20.8404L4.15878 17.4796C3.41682 16.7369 3 15.7296 3 14.6793C3 13.6289 3.41682 12.6216 4.15878 11.8789L8.67619 7.35617L6.4163 5.06708C6.27278 4.91692 6.19396 4.71632 6.19684 4.50852C6.19972 4.30072 6.28407 4.10238 6.4317 3.95627C6.57933 3.81015 6.77841 3.72797 6.98602 3.72744C7.19362 3.72691 7.39312 3.80807 7.5415 3.95343L9.79507 6.23776L11.02 5.01005L10.3529 4.34233C10.2088 4.19295 10.129 3.99287 10.1308 3.78519C10.1326 3.57751 10.2158 3.37885 10.3626 3.23199C10.5093 3.08514 10.7077 3.00183 10.9152 3.00003C11.1227 2.99823 11.3226 3.07806 11.4718 3.22234L21.7584 13.5193C21.834 13.5923 21.8943 13.6798 21.9358 13.7764C21.9772 13.873 21.9991 13.977 22 14.0821C22.0009 14.1873 21.9809 14.2916 21.9411 14.3889C21.9013 14.4863 21.8425 14.5747 21.7682 14.6491C21.6939 14.7235 21.6056 14.7823 21.5083 14.8221C21.4111 14.8619 21.3069 14.882 21.2018 14.8811C21.0968 14.8801 20.9929 14.8583 20.8964 14.8168C20.7999 14.7753 20.7126 14.7149 20.6396 14.6393L19.9725 13.9716ZM18.8536 12.8516L12.1388 6.13004L10.9068 7.36409L14.6401 11.1486C14.7211 11.2206 14.7865 11.3086 14.8322 11.407C14.8779 11.5053 14.9029 11.612 14.9056 11.7205C14.9084 11.8289 14.8889 11.9368 14.8484 12.0374C14.8078 12.138 14.747 12.2292 14.6698 12.3053C14.5925 12.3814 14.5005 12.4408 14.3994 12.4798C14.2983 12.5189 14.1903 12.5367 14.082 12.5322C13.9737 12.5278 13.8675 12.5011 13.7699 12.4538C13.6724 12.4065 13.5856 12.3397 13.5149 12.2575L9.78874 8.48329L5.27844 12.9981C5.05796 13.2188 4.88307 13.4807 4.76375 13.769C4.64443 14.0574 4.58301 14.3664 4.58301 14.6785C4.58301 14.9906 4.64443 15.2996 4.76375 15.5879C4.88307 15.8762 5.05796 16.1382 5.27844 16.3589L8.63505 19.7196C9.08075 20.1644 9.68442 20.4141 10.3137 20.4141C10.9431 20.4141 11.5467 20.1644 11.9925 19.7196L18.8536 12.8516Z" fill="#6F6F6F"/>
</svg>
