<svg width="14" height="18" viewBox="0 0 14 18" fill="none" xmlns="http://www.w3.org/2000/svg">
<path d="M12.1875 0H2.8125C2.56386 0 2.3254 0.118526 2.14959 0.329505C1.97377 0.540483 1.875 0.826631 1.875 1.125C1.875 1.42337 1.97377 1.70952 2.14959 1.9205C2.3254 2.13147 2.56386 2.25 2.8125 2.25H6.38313L4.84937 15.75H0.9375C0.68886 15.75 0.450403 15.8685 0.274587 16.0795C0.0987721 16.2905 0 16.5766 0 16.875C0 17.1734 0.0987721 17.4595 0.274587 17.6705C0.450403 17.8815 0.68886 18 0.9375 18H10.3125C10.5611 18 10.7996 17.8815 10.9754 17.6705C11.1512 17.4595 11.25 17.1734 11.25 16.875C11.25 16.5766 11.1512 16.2905 10.9754 16.0795C10.7996 15.8685 10.5611 15.75 10.3125 15.75H6.74187L8.27563 2.25H12.1875C12.4361 2.25 12.6746 2.13147 12.8504 1.9205C13.0262 1.70952 13.125 1.42337 13.125 1.125C13.125 0.826631 13.0262 0.540483 12.8504 0.329505C12.6746 0.118526 12.4361 0 12.1875 0V0Z" fill="#6F6F6F"/>
</svg>
