<svg width="25" height="25" viewBox="0 0 25 25" fill="none" xmlns="http://www.w3.org/2000/svg">
<g clip-path="url(#clip0_47_14)">
<path d="M21.875 4.16666H18.6458C18.4041 2.99105 17.7644 1.93473 16.8346 1.17574C15.9049 0.416753 14.7419 0.0015075 13.5417 -7.62939e-06L11.4583 -7.62939e-06C10.2581 0.0015075 9.09513 0.416753 8.16537 1.17574C7.23561 1.93473 6.59594 2.99105 6.35418 4.16666H3.12501C2.84874 4.16666 2.58379 4.27641 2.38844 4.47176C2.19309 4.66711 2.08334 4.93206 2.08334 5.20833C2.08334 5.48459 2.19309 5.74954 2.38844 5.94489C2.58379 6.14025 2.84874 6.24999 3.12501 6.24999H4.16668V19.7917C4.16833 21.1725 4.7176 22.4963 5.69399 23.4727C6.67038 24.4491 7.99418 24.9983 9.37501 25H15.625C17.0058 24.9983 18.3296 24.4491 19.306 23.4727C20.2824 22.4963 20.8317 21.1725 20.8333 19.7917V6.24999H21.875C22.1513 6.24999 22.4162 6.14025 22.6116 5.94489C22.8069 5.74954 22.9167 5.48459 22.9167 5.20833C22.9167 4.93206 22.8069 4.66711 22.6116 4.47176C22.4162 4.27641 22.1513 4.16666 21.875 4.16666V4.16666ZM11.4583 2.08333H13.5417C14.1878 2.08411 14.8179 2.28476 15.3454 2.65775C15.873 3.03073 16.2723 3.5578 16.4886 4.16666H8.51147C8.7277 3.5578 9.12699 3.03073 9.65458 2.65775C10.1822 2.28476 10.8122 2.08411 11.4583 2.08333V2.08333ZM18.75 19.7917C18.75 20.6205 18.4208 21.4153 17.8347 22.0014C17.2487 22.5874 16.4538 22.9167 15.625 22.9167H9.37501C8.54621 22.9167 7.75135 22.5874 7.1653 22.0014C6.57925 21.4153 6.25001 20.6205 6.25001 19.7917V6.24999H18.75V19.7917Z" fill="#6F6F6F"/>
<path d="M10.4167 18.75C10.6929 18.75 10.9579 18.6403 11.1532 18.4449C11.3486 18.2496 11.4583 17.9846 11.4583 17.7083V11.4583C11.4583 11.1821 11.3486 10.9171 11.1532 10.7218C10.9579 10.5264 10.6929 10.4167 10.4167 10.4167C10.1404 10.4167 9.87545 10.5264 9.6801 10.7218C9.48475 10.9171 9.375 11.1821 9.375 11.4583V17.7083C9.375 17.9846 9.48475 18.2496 9.6801 18.4449C9.87545 18.6403 10.1404 18.75 10.4167 18.75Z" fill="#6F6F6F"/>
<path d="M14.5833 18.75C14.8596 18.75 15.1246 18.6403 15.3199 18.4449C15.5153 18.2496 15.625 17.9846 15.625 17.7083V11.4583C15.625 11.1821 15.5153 10.9171 15.3199 10.7218C15.1246 10.5264 14.8596 10.4167 14.5833 10.4167C14.3071 10.4167 14.0421 10.5264 13.8468 10.7218C13.6514 10.9171 13.5417 11.1821 13.5417 11.4583V17.7083C13.5417 17.9846 13.6514 18.2496 13.8468 18.4449C14.0421 18.6403 14.3071 18.75 14.5833 18.75Z" fill="#6F6F6F"/>
</g>
<defs>
<clipPath id="clip0_47_14">
<rect width="25" height="25" fill="white"/>
</clipPath>
</defs>
</svg>
