<svg width="25" height="25" viewBox="0 0 25 25" fill="none" xmlns="http://www.w3.org/2000/svg">
<g clip-path="url(#clip0_47_9)">
<path d="M1.22083 19.9156C0.43937 20.6968 0.00022836 21.7565 -7.62939e-06 22.8615L-7.62939e-06 25H2.13853C3.24351 24.9998 4.30315 24.5606 5.08437 23.7792L18.9833 9.8802L15.1198 6.01666L1.22083 19.9156Z" fill="black"/>
<path d="M24.1094 0.890632C23.8557 0.636711 23.5545 0.435273 23.2229 0.297837C22.8914 0.160401 22.536 0.0896606 22.1771 0.0896606C21.8182 0.0896606 21.4628 0.160401 21.1312 0.297837C20.7997 0.435273 20.4985 0.636711 20.2448 0.890632L16.5927 4.54376L20.4563 8.4073L24.1094 4.75522C24.3633 4.50156 24.5647 4.20034 24.7022 3.86879C24.8396 3.53723 24.9104 3.18184 24.9104 2.82292C24.9104 2.46401 24.8396 2.10862 24.7022 1.77706C24.5647 1.44551 24.3633 1.14429 24.1094 0.890632V0.890632Z" fill="black"/>
</g>
<defs>
<clipPath id="clip0_47_9">
<rect width="25" height="25" fill="white"/>
</clipPath>
</defs>
</svg>
