<svg width="21" height="25" viewBox="0 0 21 25" fill="none" xmlns="http://www.w3.org/2000/svg">
<path d="M15.625 14.5834C15.625 14.8596 15.5153 15.1246 15.3199 15.3199C15.1246 15.5153 14.8596 15.625 14.5833 15.625H6.25C5.97373 15.625 5.70878 15.5153 5.51343 15.3199C5.31808 15.1246 5.20833 14.8596 5.20833 14.5834C5.20833 14.3071 5.31808 14.0421 5.51343 13.8468C5.70878 13.6514 5.97373 13.5417 6.25 13.5417H14.5833C14.8596 13.5417 15.1246 13.6514 15.3199 13.8468C15.5153 14.0421 15.625 14.3071 15.625 14.5834ZM11.4583 17.7084H6.25C5.97373 17.7084 5.70878 17.8181 5.51343 18.0135C5.31808 18.2088 5.20833 18.4738 5.20833 18.75C5.20833 19.0263 5.31808 19.2912 5.51343 19.4866C5.70878 19.6819 5.97373 19.7917 6.25 19.7917H11.4583C11.7346 19.7917 11.9996 19.6819 12.1949 19.4866C12.3903 19.2912 12.5 19.0263 12.5 18.75C12.5 18.4738 12.3903 18.2088 12.1949 18.0135C11.9996 17.8181 11.7346 17.7084 11.4583 17.7084ZM20.8333 10.9219V19.7917C20.8317 21.1725 20.2824 22.4963 19.306 23.4727C18.3296 24.4491 17.0058 24.9984 15.625 25H5.20833C3.82751 24.9984 2.50371 24.4491 1.52731 23.4727C0.550919 22.4963 0.00165402 21.1725 0 19.7917V5.20836C0.00165402 3.82753 0.550919 2.50373 1.52731 1.52734C2.50371 0.550943 3.82751 0.00167803 5.20833 2.4009e-05H9.91146C10.8694 -0.00244154 11.8183 0.185011 12.7034 0.551544C13.5884 0.918077 14.392 1.45642 15.0677 2.13544L18.6969 5.76669C19.3763 6.44194 19.915 7.24529 20.2817 8.13021C20.6484 9.01512 20.8359 9.96401 20.8333 10.9219ZM13.5948 3.60836C13.267 3.29082 12.8989 3.01765 12.5 2.79586V7.29169C12.5 7.56796 12.6097 7.83291 12.8051 8.02826C13.0004 8.22361 13.2654 8.33336 13.5417 8.33336H18.0375C17.8156 7.9346 17.542 7.56684 17.224 7.23961L13.5948 3.60836ZM18.75 10.9219C18.75 10.75 18.7167 10.5854 18.701 10.4167H13.5417C12.7129 10.4167 11.918 10.0875 11.332 9.5014C10.7459 8.91535 10.4167 8.12049 10.4167 7.29169V2.13232C10.2479 2.11669 10.0823 2.08336 9.91146 2.08336H5.20833C4.37953 2.08336 3.58468 2.4126 2.99862 2.99865C2.41257 3.5847 2.08333 4.37956 2.08333 5.20836V19.7917C2.08333 20.6205 2.41257 21.4153 2.99862 22.0014C3.58468 22.5875 4.37953 22.9167 5.20833 22.9167H15.625C16.4538 22.9167 17.2487 22.5875 17.8347 22.0014C18.4208 21.4153 18.75 20.6205 18.75 19.7917V10.9219Z" fill="black"/>
</svg>
