<svg width="56" height="59" viewBox="0 0 56 59" fill="none" xmlns="http://www.w3.org/2000/svg">
<path d="M10.1 59H5V7.375C5 3.30892 8.4323 0 12.65 0H36.875C47.4218 0 56 8.26983 56 18.4375C56 28.6052 47.4218 36.875 36.875 36.875H10.1V59ZM10.1 31.9583H36.875C44.6091 31.9583 50.9 25.8912 50.9 18.4375C50.9 10.9838 44.6091 4.91667 36.875 4.91667H12.65C11.2449 4.91667 10.1 6.018 10.1 7.375V31.9583Z" fill="black"/>
<g clip-path="url(#clip0_68_17)">
<path d="M45.8491 58.698H45.1887V43.4297C45.1887 43.0734 45.0322 42.8174 44.7594 42.7269C44.5217 42.6483 44.1875 42.7123 43.9749 43.0331L37.9245 52.814L31.8682 43.0233C31.6615 42.7123 31.3287 42.6483 31.0903 42.7269C30.8175 42.8174 30.661 43.0741 30.661 43.4297V58.698H30V43.4297C30 42.7694 30.3414 42.2462 30.8915 42.0632C31.4522 41.8767 32.0643 42.1063 32.415 42.6337L37.9245 51.5394L43.4275 42.6434C43.7841 42.1056 44.3969 41.8753 44.9575 42.0632C45.507 42.2455 45.8491 42.7694 45.8491 43.4297V58.698Z" fill="black"/>
</g>
<defs>
<clipPath id="clip0_68_17">
<rect width="15.8491" height="16.6981" fill="white" transform="translate(30 42)"/>
</clipPath>
</defs>
</svg>
