<svg width="19" height="19" viewBox="0 0 19 19" fill="none" xmlns="http://www.w3.org/2000/svg">
<g clip-path="url(#clip0_51_25)">
<path d="M15.0417 19H3.95833C2.9089 18.9987 1.90282 18.5813 1.16076 17.8392C0.418698 17.0972 0.00125705 16.0911 0 15.0417L0 3.95833C0.00125705 2.9089 0.418698 1.90282 1.16076 1.16076C1.90282 0.418698 2.9089 0.00125705 3.95833 0L15.0417 0C16.0911 0.00125705 17.0972 0.418698 17.8392 1.16076C18.5813 1.90282 18.9987 2.9089 19 3.95833V15.0417C18.9987 16.0911 18.5813 17.0972 17.8392 17.8392C17.0972 18.5813 16.0911 18.9987 15.0417 19V19ZM3.95833 1.58333C3.32844 1.58333 2.72435 1.83356 2.27895 2.27895C1.83356 2.72435 1.58333 3.32844 1.58333 3.95833V15.0417C1.58333 15.6716 1.83356 16.2756 2.27895 16.721C2.72435 17.1664 3.32844 17.4167 3.95833 17.4167H15.0417C15.6716 17.4167 16.2756 17.1664 16.721 16.721C17.1664 16.2756 17.4167 15.6716 17.4167 15.0417V3.95833C17.4167 3.32844 17.1664 2.72435 16.721 2.27895C16.2756 1.83356 15.6716 1.58333 15.0417 1.58333H3.95833ZM7.39575 13.4623C7.06573 13.4612 6.74184 13.373 6.45683 13.2066C6.17527 13.0454 5.94158 12.8124 5.77967 12.5313C5.61775 12.2501 5.53343 11.931 5.53533 11.6066V7.39337C5.53507 7.06891 5.62013 6.75007 5.782 6.46886C5.94387 6.18766 6.17685 5.95396 6.45756 5.79123C6.73827 5.6285 7.05684 5.54245 7.38131 5.54172C7.70578 5.541 8.02473 5.62561 8.30617 5.78708L12.4846 7.87312C12.7748 8.02981 13.0179 8.26126 13.1886 8.5435C13.3592 8.82574 13.4513 9.14849 13.4553 9.47829C13.4593 9.8081 13.3749 10.133 13.2111 10.4192C13.0472 10.7055 12.8098 10.9427 12.5234 11.1063L8.26738 13.2335C8.00194 13.3849 7.70133 13.4638 7.39575 13.4623V13.4623ZM7.37596 7.12896C7.33233 7.12894 7.28946 7.14041 7.25167 7.16221C7.21061 7.18504 7.17654 7.21862 7.15311 7.25935C7.12968 7.30007 7.11777 7.3464 7.11867 7.39337V11.6066C7.11893 11.6529 7.13124 11.6983 7.15436 11.7384C7.17749 11.7785 7.21064 11.8119 7.25057 11.8353C7.29049 11.8587 7.33582 11.8713 7.38209 11.8718C7.42837 11.8724 7.474 11.861 7.5145 11.8386L11.7705 9.71058C11.8022 9.68579 11.8274 9.65368 11.8439 9.617C11.8605 9.58032 11.8679 9.54017 11.8655 9.5C11.8665 9.45291 11.8545 9.40646 11.831 9.3657C11.8074 9.32493 11.773 9.29143 11.7317 9.26883L7.55646 7.18279C7.50202 7.1494 7.43979 7.13084 7.37596 7.12896V7.12896Z" fill="#6F6F6F"/>
</g>
<defs>
<clipPath id="clip0_51_25">
<rect width="19" height="19" fill="white"/>
</clipPath>
</defs>
</svg>
